# xmcd
# 
# Track frame offsets:
#   150
#   19295
#   38192
#   53587
#   70680
#   87657
#   102170
#   116352
#   129332
#   147510
#   163050
#   180435
#   196985
#   214120
# 
# Disc length: 3041 seconds
# 
# Revision: 0
# Processed by: cddbd v1.5.1PL2 Copyright (c) Steve Scherf et al.
# Submitted via: Synapstar 1.0 
# 
DISCID=c10bdf0e
DTITLE=Various Artist - SD-Country Hits
DYEAR=1900
DGENRE=Country
TTITLE0=Faith Hill - Love Ain't Like That
TTITLE1=Brooks and Dunn - I can't Get Over You
TTITLE2=Lee Ann Womack - I'll Think Of A Reason Latter
TTITLE3=Collin Raye - Anyone Else
TTITLE4=Terri Clark - Everytime I Cry
TTITLE5=Kenny Chesney - How Forever Feels
TTITLE6=Vince Gill - Don't Come Crying To Me
TTITLE7=Deana Carter - You Still Shake Me
TTITLE8=Mark Wills - Wish You Were Here
TTITLE9=Tracy Byrd - When Mama Ain't Happy
TTITLE10=Travis Tritt - No More Looking Over My Shoulder
TTITLE11=Sawyer Brown - Drive Me Wild
TTITLE12=Deryl Dodd - A Bitter End
TTITLE13=Wade Hayes - Tore Up From The Floor up
EXTD=MediaType: Karaoke CD+G Producer: StarDisc
EXTT0=
EXTT1=
EXTT2=
EXTT3=
EXTT4=
EXTT5=
EXTT6=
EXTT7=
EXTT8=
EXTT9=
EXTT10=
EXTT11=
EXTT12=
EXTT13=
PLAYORDER=
